<svg width="174" height="103" viewBox="0 0 174 103" fill="none" xmlns="http://www.w3.org/2000/svg">
<g clip-path="url(#clip0)">
<path d="M58.9116 69.5466C58.4286 69.5466 57.9772 69.4824 57.5576 69.356C57.137 69.2296 56.7896 69.0974 56.5132 68.9539V67.6179H56.5794C56.6824 67.7011 56.8025 67.7893 56.9435 67.8858C57.0835 67.9812 57.2697 68.0841 57.5026 68.191C57.7102 68.2818 57.9376 68.3636 58.1861 68.4366C58.4331 68.5064 58.6902 68.5433 58.9567 68.5433C59.1533 68.5433 59.3591 68.5197 59.5777 68.477C59.7985 68.4333 59.9618 68.377 60.0693 68.3074C60.2216 68.2133 60.3304 68.1091 60.3967 68.0004C60.4633 67.8904 60.4973 67.7251 60.4973 67.5077C60.4973 67.2242 60.418 67.0127 60.2598 66.8699C60.1018 66.7259 59.8235 66.6046 59.4226 66.5071C59.2687 66.4724 59.0668 66.4265 58.8144 66.3761C58.5658 66.3237 58.3344 66.2733 58.1237 66.2111C57.5717 66.0546 57.1708 65.8161 56.9212 65.4892C56.6714 65.1627 56.5467 64.7675 56.5467 64.3039C56.5467 63.6699 56.7896 63.1509 57.2837 62.7518C57.7724 62.3514 58.4276 62.1503 59.2419 62.1503C59.6428 62.1503 60.0452 62.2002 60.4505 62.2964C60.8573 62.3934 61.1988 62.5162 61.474 62.6628V63.9322H61.4077C61.0971 63.6925 60.7525 63.5036 60.3698 63.3638C59.9887 63.2256 59.6064 63.1552 59.2166 63.1552C58.8144 63.1552 58.4767 63.2371 58.2015 63.4021C57.9248 63.5646 57.7865 63.814 57.7865 64.1458C57.7865 64.4408 57.8697 64.6621 58.0348 64.8058C58.1956 64.9512 58.4598 65.0726 58.8212 65.1627C59.0036 65.2108 59.2037 65.2577 59.4254 65.2986C59.6484 65.3431 59.8829 65.3955 60.1256 65.4534C60.6622 65.5861 61.0646 65.8018 61.3344 66.1037C61.6037 66.4089 61.7379 66.822 61.7379 67.3427C61.7379 67.646 61.6772 67.9334 61.5516 68.2058C61.4314 68.477 61.2508 68.7103 61.0136 68.9022C60.7554 69.113 60.4633 69.2729 60.1384 69.3829C59.8122 69.4929 59.4026 69.5466 58.9116 69.5466Z" fill="#181210"/>
<path d="M68.4945 69.3766H67.2808V68.592C66.9046 68.9136 66.5474 69.1566 66.2132 69.3242C65.877 69.4879 65.5002 69.571 65.0878 69.571C64.7745 69.571 64.4765 69.5219 64.1972 69.4211C63.9205 69.3203 63.6775 69.1592 63.4702 68.9404C63.2625 68.7238 63.103 68.4454 62.9873 68.1138C62.8744 67.7813 62.8179 67.3758 62.8179 66.9022V62.3221H64.0318V66.3379C64.0318 66.7162 64.0474 67.0248 64.0756 67.2717C64.1025 67.5154 64.1647 67.7314 64.2663 67.9181C64.3654 68.0982 64.4993 68.2338 64.6688 68.3157C64.8395 68.4001 65.0852 68.4429 65.4055 68.4429C65.702 68.4429 66.0186 68.3589 66.3541 68.1957C66.6903 68.0302 66.9983 67.8291 67.2808 67.5881V62.3221H68.4945V69.3766Z" fill="#181210"/>
<path d="M76.3139 65.6627C76.3139 66.8386 76.0255 67.7736 75.4508 68.4705C74.8747 69.1674 74.1479 69.5179 73.2671 69.5179C72.9099 69.5179 72.5921 69.4759 72.3155 69.3958C72.0403 69.3139 71.7578 69.1942 71.4701 69.022V71.9797H70.2544V62.3224H71.4701V63.0612C71.7709 62.7965 72.1065 62.5734 72.4748 62.394C72.8431 62.2152 73.2442 62.1249 73.6806 62.1249C74.5077 62.1249 75.1533 62.4465 75.6179 63.0868C76.0806 63.7256 76.3139 64.5852 76.3139 65.6627ZM75.0602 65.7971C75.0602 64.9914 74.9272 64.368 74.663 63.9234C74.4009 63.479 73.9729 63.2561 73.3831 63.2561C73.0384 63.2561 72.7048 63.3311 72.385 63.4808C72.0625 63.6296 71.7578 63.8236 71.4701 64.0589V68.0573C71.7899 68.2098 72.0612 68.3106 72.2873 68.3676C72.5128 68.4214 72.773 68.4477 73.0666 68.4477C73.6964 68.4477 74.1859 68.2223 74.5346 67.7736C74.8832 67.3218 75.0602 66.6636 75.0602 65.7971Z" fill="#181210"/>
<path d="M83.6316 65.6627C83.6316 66.8386 83.3439 67.7736 82.7691 68.4705C82.1918 69.1674 81.4663 69.5179 80.5848 69.5179C80.2276 69.5179 79.9118 69.4759 79.6365 69.3958C79.3586 69.3139 79.0788 69.1942 78.7878 69.022V71.9797H77.5728V62.3224H78.7878V63.0612C79.0873 62.7965 79.4248 62.5734 79.7944 62.394C80.1628 62.2152 80.5658 62.1249 81.0003 62.1249C81.8261 62.1249 82.4742 62.4465 82.9356 63.0868C83.4003 63.7256 83.6316 64.5852 83.6316 65.6627ZM82.3766 65.7971C82.3766 64.9914 82.2455 64.368 81.9827 63.9234C81.7186 63.479 81.2926 63.2561 80.7008 63.2561C80.3581 63.2561 80.0245 63.3311 79.704 63.4808C79.3809 63.6296 79.0788 63.8236 78.7878 64.0589V68.0573C79.1083 68.2098 79.3809 68.3106 79.607 68.3676C79.8338 68.4214 80.0926 68.4477 80.3862 68.4477C81.0141 68.4477 81.5043 68.2223 81.8529 67.7736C82.2003 67.3218 82.3766 66.6636 82.3766 65.7971Z" fill="#181210"/>
<path d="M84.9185 69.3755H86.1355V59.5478H84.9185V69.3755Z" fill="#181210"/>
<path d="M93.5946 62.3224L89.7096 71.9797H88.4107L89.705 69.0364L87.0776 62.3224H88.391L90.3643 67.5464L92.3284 62.3224H93.5946Z" fill="#181210"/>
<path d="M174.003 36.9243L161.613 25.7906V12.3876H155.315V20.1314L138.395 4.92732L102.93 36.7704L107.956 36.7815C107.942 36.8975 107.934 37.0232 107.934 37.1601V65.4709C107.934 67.6188 109.716 69.3582 111.913 69.3582H163.897C166.094 69.3582 167.878 67.6188 167.878 65.4709V36.9112L174.003 36.9243Z" fill="#181210"/>
<path d="M110.788 29.3164C110.309 21.6446 119.842 12.6911 130.215 12.0735L110.788 29.3164Z" fill="#F46F1B"/>
<path d="M101.209 12.423L111.608 20.7642L112.856 18.5165L101.209 12.423Z" fill="#F46F1B"/>
<path d="M108.378 4.95997L114.937 16.3923L116.943 14.7426L108.378 4.95997Z" fill="#F46F1B"/>
<path d="M118.04 -0.000930786L120.435 12.5088L122.881 11.5677L118.04 -0.000930786Z" fill="#F46F1B"/>
<path d="M130.216 12.0749C129.88 15.863 126.685 21.496 123.38 24.6252C120.173 27.6562 114.381 29.342 110.812 29.342H111.478C111.167 29.342 111.473 29.3669 111.167 29.342L112.711 27.6686" fill="white"/>
<path d="M139.42 28.6599L128.823 20.5605L127.627 22.8337L139.42 28.6599Z" fill="white"/>
<path d="M132.428 36.283L125.599 25.0065L123.631 26.6988L132.428 36.283Z" fill="white"/>
<path d="M122.889 41.4663L120.195 29.0131L117.771 30.0106L122.889 41.4663Z" fill="white"/>
<path d="M11.7178 52.688C11.7178 55.6224 9.47595 57.5437 4.99206 58.4536C3.87691 58.6808 1.19016 58.7942 0.33178 58.7942L0 53.7855C3.13117 53.6653 5.55116 53.1196 5.55116 52.1392C5.55116 51.1415 5.1303 49.9212 4.29317 48.4796C3.5057 47.2153 2.7231 45.9554 1.94972 44.701C1.10824 43.1857 0.690443 41.8439 0.690443 40.6691C0.690443 37.6869 2.9407 35.7525 7.44713 34.8736C8.55103 34.6575 10.3791 34.5474 11.2278 34.5474L11.2731 39.5729C10.3469 39.5729 9.47006 39.677 8.64134 39.8842C7.45277 40.1823 6.85704 40.6251 6.85704 41.2166C6.85704 42.0685 7.27608 43.2129 8.11476 44.6542C8.89274 45.9609 9.67335 47.2572 10.4582 48.5525C11.2984 50.1341 11.7178 51.5112 11.7178 52.688Z" fill="#181210"/>
<path d="M35.9443 46.8589C35.9443 50.0432 34.8007 52.7537 32.5095 54.9853C30.2211 57.2162 27.4424 58.3303 24.1827 58.3303C20.899 58.3303 18.1206 57.22 15.846 54.9994C13.572 52.7775 12.4355 50.0645 12.4355 46.8589C12.4355 43.6738 13.5788 40.9594 15.8632 38.724C18.146 36.4866 20.9203 35.3693 24.1827 35.3693C27.4102 35.3693 30.1783 36.4938 32.4855 38.747C34.7907 40.9983 35.9443 43.7032 35.9443 46.8589ZM30.653 46.8589C30.653 45.1001 30.0232 43.6047 28.7639 42.3716C27.5031 41.1365 25.9771 40.5233 24.1827 40.5233C22.3872 40.5233 20.8609 41.1365 19.6059 42.3716C18.3533 43.6047 17.7269 45.1001 17.7269 46.8589C17.7269 48.6044 18.3564 50.0956 19.6159 51.3287C20.8734 52.5631 22.3982 53.1797 24.1827 53.1797C25.9771 53.1797 27.5031 52.5657 28.7639 51.3385C30.0232 50.1087 30.653 48.6169 30.653 46.8589Z" fill="#181210"/>
<path d="M55.037 58.1694H37.4097V35.2072H42.7025V53.017H55.037V58.1694Z" fill="#181210"/>
<path d="M79.1584 58.3335H73.4239L71.7324 54.8883H62.9143L61.6369 58.3335H56.707L64.5482 35.3693H70.1569L79.1584 58.3335ZM70.0993 50.2971L67.3448 43.0011L64.6032 50.2971H70.0993Z" fill="#181210"/>
<path d="M101.656 60.3759L97.9326 64.0425L86.1845 52.5864V58.3298H80.895V35.369H92.6392C95.0634 35.369 97.139 36.2112 98.8639 37.8987C100.592 39.5846 101.453 41.6108 101.453 43.9755C101.453 46.1761 100.707 48.093 99.2158 49.7283C97.7229 51.3625 95.859 52.293 93.6301 52.5232L101.656 60.3759ZM96.1618 43.9682C96.1618 43.0324 95.8112 42.2241 95.1132 41.543C94.4113 40.8625 93.5823 40.5214 92.6281 40.5214H86.1845V47.433H92.6281C93.5947 47.433 94.4238 47.0932 95.1217 46.4101C95.8158 45.7305 96.1618 44.9161 96.1618 43.9682Z" fill="#181210"/>
<path d="M99.5139 60.1733C99.5139 61.0871 98.7563 61.8264 97.8224 61.8264C96.8891 61.8264 96.1309 61.0871 96.1309 60.1733C96.1309 59.2617 96.8891 58.5224 97.8224 58.5224C98.7563 58.5224 99.5139 59.2617 99.5139 60.1733Z" fill="white"/>
<path d="M99.5139 60.1733C99.5139 61.0871 98.7563 61.8264 97.8224 61.8264C96.8891 61.8264 96.1309 61.0871 96.1309 60.1733C96.1309 59.2617 96.8891 58.5224 97.8224 58.5224C98.7563 58.5224 99.5139 59.2617 99.5139 60.1733Z" fill="#918F90"/>
<path fill-rule="evenodd" clip-rule="evenodd" d="M169.304 99.4539C168.925 100.588 168.61 101.472 168.486 101.798C168.216 102.508 167.697 102.609 167.026 102.609C165.813 102.609 164.896 102.321 164.45 101.963C164.358 101.889 164.243 101.732 164.32 101.501C164.461 101.081 164.723 100.328 165.018 99.4532L169.304 99.4539ZM156.923 99.4539C155.822 100.612 154.976 101.582 154.613 101.988C154.221 102.425 153.648 102.517 152.978 102.517C152.148 102.517 151.265 102.077 151.181 102.033C150.919 101.898 150.907 101.749 150.984 101.432L151.204 100.538C151.268 100.278 151.374 99.9065 151.514 99.4532L156.923 99.4539ZM148.363 99.4539C146.119 102.633 143.284 102.609 140.126 102.609C138.404 102.609 134.584 102.629 134.53 99.4544L148.363 99.4539ZM116.558 99.4539C117.108 99.7786 117.764 99.985 118.5 99.985C119.34 99.985 120.041 99.7412 120.576 99.4544L128.317 99.4539C128 100.891 123.522 103 119.744 103C115.791 103 112.101 101.563 110.095 99.4524L116.558 99.4539Z" fill="#EF2F2C"/>
<path fill-rule="evenodd" clip-rule="evenodd" d="M134.161 94.0478C134.161 94.4852 133.651 95.6885 133.579 95.8658C133.122 96.995 131.921 97.1776 131.075 97.1776C129.806 97.1776 129.37 96.7225 129.37 96.0041C129.37 95.4487 129.838 94.4886 129.9 94.3471C130.471 93.039 131.494 92.8971 132.503 92.8971C133.358 92.8971 134.161 93.2527 134.161 94.0478ZM123.314 91.2859C123.314 90.4537 123.274 89.261 122.622 89.261C120.503 89.261 116.778 92.5008 116.404 92.8741C116.127 93.1506 116.335 93.1268 116.704 93.1268H121.471C123.16 93.1268 123.314 92.8426 123.314 91.2859ZM144.064 91.5847C143.619 91.5847 142.959 91.6548 142.66 92.0684C141.538 93.6208 140.794 97.5018 140.794 98.5819C140.794 99.3192 141.307 99.2721 141.992 99.2721C142.39 99.2721 143.033 99.2818 143.397 98.904C144.382 97.8784 145.232 93.2284 145.232 92.3895C145.232 91.7921 145.19 91.5847 144.064 91.5847ZM151.513 99.4543C152.253 97.0479 153.924 92.3214 155.141 89.5603C155.203 89.4214 155.263 89.3055 155.578 89.2569C155.724 89.2333 156.203 89.1229 156.87 89.1229C157.359 89.1229 158.31 89.1568 158.785 89.4122C158.785 89.4122 158.79 89.405 158.79 90.2047C158.79 90.5491 158.827 91.7228 159.933 91.7228C161.798 91.7228 165.184 88.5242 168.177 88.5242C170.81 88.5242 171.403 90.1469 171.403 91.4013C171.403 92.8715 170.181 96.8318 169.303 99.4548L165.017 99.4543C165.68 97.4895 166.509 94.9194 166.509 94.188C166.509 93.6083 166.338 93.1728 165.76 93.1728C163.317 93.1728 159.449 96.8018 156.922 99.4561L151.513 99.4543ZM134.53 99.4543C134.53 99.4325 134.529 99.4103 134.529 99.3867C134.529 97.9374 135.794 95.2791 136.832 92.7589C137.274 91.6875 139.156 88.0872 145.561 88.0872C148.204 88.0872 151.481 88.5011 151.481 91.3782C151.481 93.1499 149.729 97.04 149.167 98.1214C148.908 98.6192 148.64 99.0605 148.362 99.4543H134.53ZM120.576 99.4543C121.192 99.1235 121.589 98.7338 121.724 98.5911C121.724 98.5911 123.8 98.3514 125.132 98.3514C126.427 98.3514 128.334 98.5589 128.334 99.2957C128.334 99.3468 128.328 99.3998 128.317 99.4527L120.576 99.4543ZM110.095 99.4543C109.107 98.4128 108.528 97.2096 108.528 95.9353C108.528 89.4634 121.027 84.5887 124.672 84.5887C127.956 84.5887 128.403 89.8135 128.403 91.7228C128.403 95.8031 125.892 96.6486 123.106 96.6486H121.148C119.192 96.6486 115.253 96.5332 115.253 96.5332C114.937 96.5273 114.7 96.4644 114.7 96.6486C114.7 97.5517 115.394 98.7666 116.557 99.4543H110.095Z" fill="#EF2F2C"/>
<path d="M53.5502 98.4759C53.7537 98.6573 54.191 98.8911 54.7895 98.8911C56.0706 98.8911 56.8058 97.9747 56.8058 96.3643C56.8058 94.7106 56.0483 93.8054 54.8008 93.8054C54.2342 93.8054 53.7744 94.0078 53.4752 94.2836V93.9116H52.0352V101.077H53.5502V98.4759ZM55.2701 96.3643C55.2701 97.0258 55.0455 97.5058 54.3407 97.5058C53.978 97.5058 53.7202 97.4101 53.5502 97.3134V95.3944C53.7202 95.2862 53.978 95.1908 54.3407 95.1908C55.0568 95.1908 55.2701 95.7022 55.2701 96.3643ZM59.8164 93.8054C58.1834 93.8054 57.4469 94.86 57.4469 96.3643C57.4469 97.8046 58.2266 98.8911 59.7636 98.8911C61.3849 98.8911 62.1429 97.8253 62.1429 96.3323C62.1429 94.86 61.3647 93.8054 59.8164 93.8054ZM59.7956 97.5372C59.2608 97.5372 58.9823 97.1862 58.9823 96.3323C58.9823 95.5213 59.2498 95.1573 59.7731 95.1573C60.3286 95.1573 60.6066 95.5213 60.6066 96.3643C60.6066 97.154 60.3286 97.5372 59.7956 97.5372ZM65.7724 93.9116L64.8443 97.196L63.9583 93.9116H62.421L63.8725 98.7749H65.5161L66.477 95.8311L67.4384 98.7749H69.082L70.533 93.9116H68.985L68.1101 97.196L67.1821 93.9116H65.7724ZM73.2974 97.6237C72.7102 97.6237 72.3681 97.3356 72.3359 96.8332H75.154C75.2084 96.6296 75.2405 96.2366 75.2405 95.9483C75.2405 94.8914 74.6848 93.8054 73.127 93.8054C71.6104 93.8054 70.8116 94.9876 70.8116 96.3433C70.8116 97.8253 71.5685 98.8911 73.2974 98.8911C74.0877 98.8911 74.7169 98.5621 75.1226 98.1771L74.4285 97.2065C74.0674 97.4743 73.6821 97.6237 73.2974 97.6237ZM72.3359 95.7786C72.3681 95.3512 72.6145 94.9981 73.127 94.9981C73.4691 94.9981 73.8538 95.1586 73.8538 95.6498C73.8538 95.6715 73.8538 95.7139 73.8426 95.7786H72.3359ZM77.4917 94.6674V93.9116H76.042V98.7749H77.5553V95.7774C77.7047 95.5213 78.0252 95.3609 78.3673 95.3609C78.6229 95.3609 78.9748 95.4036 79.2101 95.467L79.3058 93.8689C79.1465 93.8259 78.965 93.8054 78.773 93.8054C78.0999 93.8054 77.7368 94.2429 77.5029 94.6686L77.4917 94.6674ZM82.1894 97.6237C81.6022 97.6237 81.2601 97.3356 81.228 96.8332H84.046C84.0985 96.6296 84.1306 96.2366 84.1306 95.9483C84.1306 94.8914 83.5768 93.8054 82.0183 93.8054C80.5025 93.8054 79.7023 94.9876 79.7023 96.3433C79.7023 97.8253 80.4592 98.8911 82.1894 98.8911C82.9798 98.8911 83.6082 98.5621 84.0139 98.1771L83.3205 97.2065C82.9575 97.4743 82.5741 97.6237 82.1894 97.6237ZM81.228 95.7786C81.2601 95.3512 81.5052 94.9981 82.0183 94.9981C82.3591 94.9981 82.7445 95.1586 82.7445 95.6498C82.7445 95.6715 82.7445 95.7139 82.7347 95.7786H81.228ZM87.975 94.2206C87.7711 94.0388 87.3445 93.8054 86.7573 93.8054C85.4879 93.8054 84.7617 94.7211 84.7617 96.3323C84.7617 97.986 85.5082 98.8911 86.7462 98.8911C87.3019 98.8911 87.7502 98.6892 88.049 98.4122V98.7749H89.4895V91.4157H87.975V94.2206ZM86.2979 96.331C86.2979 95.6694 86.522 95.1908 87.2062 95.1908C87.5575 95.1908 87.8039 95.2862 87.975 95.3814V97.3029C87.8039 97.4101 87.5575 97.5058 87.2062 97.5058C86.5109 97.5058 86.2979 96.9936 86.2979 96.3323V96.331ZM93.9513 91.4157H92.4367V98.7749H93.1399L93.6203 98.4017C93.8654 98.625 94.3143 98.8911 95.0936 98.8911C96.3958 98.8911 97.1527 97.868 97.1527 96.3323C97.1527 94.7211 96.4495 93.8054 95.0936 93.8054C94.4415 93.8054 94.1426 94.0283 93.9513 94.2206V91.4157ZM95.6172 96.3323C95.6172 96.9936 95.4357 97.5058 94.699 97.5058C94.4002 97.5058 94.1105 97.3786 93.9513 97.2287V95.3814C94.0679 95.3066 94.3032 95.1908 94.699 95.1908C95.414 95.1908 95.6172 95.6715 95.6172 96.3323ZM99.0113 93.9116H97.3133L99.2886 98.6145L98.2747 101.077H99.8004L102.598 93.9116H100.975L100.025 96.8869L99.0113 93.9116Z" fill="#EF2F2C"/>
</g>
<defs>
<clipPath id="clip0">
<rect width="174" height="103" fill="white"/>
</clipPath>
</defs>
</svg>
