<svg width="74" height="74" viewBox="0 0 74 74" fill="none" xmlns="http://www.w3.org/2000/svg">
<path d="M18.8382 29.2153C17.0256 29.8681 15.0281 29.7847 13.2768 28.9827C11.5255 28.1806 10.1609 26.7246 9.47733 24.9287C8.79379 23.1328 8.84611 21.1407 9.62311 19.383C10.4001 17.6253 11.8395 16.2424 13.6305 15.5329L54.8187 0.435386C56.6313 -0.217341 58.6288 -0.133383 60.3801 0.668639C62.1314 1.47066 63.4959 2.92617 64.1795 4.72206C64.863 6.51794 64.8107 8.50998 64.0337 10.2677C63.2567 12.0255 61.8173 13.4083 60.0263 14.1178L18.8382 29.2153Z" fill="#2B77AA"/>
<path d="M18.8382 51.3903C17.0256 52.043 15.0281 51.9591 13.2768 51.157C11.5255 50.355 10.1609 48.8989 9.47733 47.103C8.79379 45.3072 8.84611 43.3157 9.62311 41.558C10.4001 39.8002 11.8395 38.4173 13.6305 37.7078L54.8187 22.6098C56.6313 21.957 58.6288 22.041 60.3801 22.843C62.1314 23.645 63.4959 25.1011 64.1795 26.897C64.863 28.6929 64.8107 30.6843 64.0337 32.4421C63.2567 34.1998 61.8173 35.5827 60.0263 36.2922L18.8382 51.3903Z" fill="#2B77AA"/>
<path d="M18.8382 73.5646C17.0256 74.2173 15.0281 74.1334 13.2768 73.3314C11.5255 72.5293 10.1609 71.0738 9.47733 69.2779C8.79379 67.4821 8.84611 65.49 9.62311 63.7323C10.4001 61.9745 11.8395 60.5917 13.6305 59.8822L54.8187 44.7847C56.6313 44.1319 58.6288 44.2153 60.3801 45.0173C62.1314 45.8194 63.4959 47.2754 64.1795 49.0713C64.863 50.8672 64.8107 52.8592 64.0337 54.617C63.2567 56.3747 61.8173 57.7576 60.0263 58.4671L18.8382 73.5646Z" fill="#2B77AA"/>
</svg>
