<svg width="765" height="1016" viewBox="0 0 765 1016" fill="none" xmlns="http://www.w3.org/2000/svg">
<path d="M135.644 401.119C110.757 410.08 83.3319 408.936 59.2873 397.924C35.2427 386.913 16.5061 366.921 7.12125 342.264C-2.26357 317.607 -1.54522 290.257 9.12276 266.123C19.7907 241.99 39.5529 223.004 64.1432 213.262L629.646 5.97773C654.533 -2.98403 681.958 -1.83131 706.003 9.18023C730.047 20.1918 748.782 40.1755 758.167 64.8326C767.552 89.4896 766.833 116.84 756.165 140.973C745.497 165.106 725.735 184.093 701.145 193.834L135.644 401.119Z" fill="white"/>
<path d="M135.644 705.574C110.757 714.536 83.3319 713.383 59.2873 702.372C35.2427 691.36 16.5061 671.368 7.12125 646.711C-2.26357 622.054 -1.54522 594.712 9.12276 570.579C19.7907 546.446 39.5529 527.459 64.1432 517.718L629.646 310.425C654.533 301.463 681.958 302.616 706.003 313.628C730.047 324.639 748.782 344.631 758.167 369.288C767.552 393.945 766.833 421.287 756.165 445.42C745.497 469.554 725.735 488.54 701.145 498.281L135.644 705.574Z" fill="white"/>
<path d="M135.644 1010.02C110.757 1018.98 83.3319 1017.83 59.2873 1006.82C35.2427 995.808 16.5061 975.824 7.12125 951.167C-2.26357 926.51 -1.54522 899.16 9.12276 875.027C19.7907 850.893 39.5529 831.907 64.1432 822.166L629.646 614.881C654.533 605.919 681.958 607.064 706.003 618.076C730.047 629.087 748.782 649.079 758.167 673.736C767.552 698.393 766.833 725.743 756.165 749.876C745.497 774.009 725.735 792.996 701.145 802.737L135.644 1010.02Z" fill="white"/>
</svg>
