<svg width="1016" height="1016" viewBox="0 0 1016 1016" fill="none" xmlns="http://www.w3.org/2000/svg">
<path d="M258.644 401.119C233.757 410.08 206.332 408.936 182.287 397.924C158.243 386.913 139.506 366.921 130.121 342.264C120.736 317.607 121.455 290.257 132.123 266.123C142.791 241.99 162.553 223.004 187.143 213.262L752.646 5.97773C777.533 -2.98403 804.958 -1.83131 829.003 9.18023C853.047 20.1918 871.782 40.1755 881.167 64.8325C890.552 89.4896 889.833 116.84 879.165 140.973C868.497 165.106 848.735 184.093 824.145 193.834L258.644 401.119Z" fill="black" fill-opacity="0.3"/>
<path d="M258.644 705.574C233.757 714.536 206.332 713.383 182.287 702.372C158.243 691.36 139.506 671.368 130.121 646.711C120.736 622.054 121.455 594.712 132.123 570.579C142.791 546.446 162.553 527.459 187.143 517.718L752.646 310.425C777.533 301.463 804.958 302.616 829.003 313.628C853.047 324.639 871.782 344.631 881.167 369.288C890.552 393.945 889.833 421.287 879.165 445.42C868.497 469.554 848.735 488.54 824.145 498.281L258.644 705.574Z" fill="black" fill-opacity="0.3"/>
<path d="M258.644 1010.02C233.757 1018.98 206.332 1017.83 182.287 1006.82C158.243 995.808 139.506 975.824 130.121 951.167C120.736 926.51 121.455 899.16 132.123 875.027C142.791 850.893 162.553 831.907 187.143 822.166L752.646 614.881C777.533 605.919 804.958 607.064 829.003 618.076C853.047 629.087 871.782 649.079 881.167 673.736C890.552 698.393 889.833 725.743 879.165 749.876C868.497 774.009 848.735 792.996 824.145 802.737L258.644 1010.02Z" fill="black" fill-opacity="0.3"/>
</svg>
