<svg width="415" height="550" viewBox="0 0 415 550" fill="none" xmlns="http://www.w3.org/2000/svg">
<path d="M73.6897 217.141C60.2173 221.992 45.3711 221.373 32.3549 215.412C19.3386 209.451 9.19573 198.629 4.11536 185.281C-0.96501 171.933 -0.576138 157.127 5.19885 144.063C10.9738 130.999 21.6719 120.721 34.9836 115.447L341.112 3.23598C354.585 -1.61537 369.431 -0.99136 382.447 4.96961C395.463 10.9306 405.605 21.7486 410.686 35.0964C415.766 48.4442 415.377 63.2499 409.602 76.3141C403.827 89.3784 393.129 99.6565 379.817 104.93L73.6897 217.141Z" fill="white"/>
<path d="M73.6897 381.955C60.2173 386.806 45.3711 386.182 32.3549 380.221C19.3386 374.26 9.19573 363.438 4.11536 350.09C-0.96501 336.742 -0.576138 321.941 5.19885 308.876C10.9738 295.812 21.6719 285.534 34.9836 280.261L341.112 168.045C354.585 163.194 369.431 163.818 382.447 169.779C395.463 175.74 405.605 186.562 410.686 199.91C415.766 213.258 415.377 228.059 409.602 241.123C403.827 254.188 393.129 264.466 379.817 269.739L73.6897 381.955Z" fill="white"/>
<path d="M73.6897 546.764C60.2173 551.615 45.3711 550.991 32.3549 545.03C19.3386 539.069 9.19573 528.251 4.11536 514.904C-0.96501 501.556 -0.576138 486.75 5.19885 473.686C10.9738 460.622 21.6719 450.343 34.9836 445.07L341.112 332.859C354.585 328.008 369.431 328.627 382.447 334.588C395.463 340.549 405.605 351.371 410.686 364.719C415.766 378.067 415.377 392.873 409.602 405.937C403.827 419.001 393.129 429.279 379.817 434.553L73.6897 546.764Z" fill="white"/>
</svg>
