<svg width="782" height="777" viewBox="0 0 782 777" fill="none" xmlns="http://www.w3.org/2000/svg">
<path opacity="0.5" d="M282.079 167.888C287.664 173.438 296.043 194.25 296.043 194.25C296.043 194.25 307.214 184.538 339.332 184.538C372.846 184.538 391 209.513 391 209.513C391 209.513 400.775 184.538 438.479 184.538C458.029 184.538 473.389 194.25 483.164 194.25C485.957 195.638 494.336 184.537 502.714 172.05C508.3 163.725 520.868 166.5 532.039 172.05L552.986 130.425C541.814 123.487 530.643 116.55 519.471 111L476.182 170.663L483.164 97.125C471.993 92.9625 458.029 90.1875 445.461 87.4125L416.136 169.275L407.757 83.25C402.171 84.6375 396.586 83.25 391 83.25C384.018 83.25 377.036 83.25 368.657 84.6375L360.279 173.438L330.954 90.1875C318.386 92.9625 305.818 95.7375 293.25 99.9L300.232 169.275L256.943 113.775C245.771 119.325 234.6 124.875 223.429 133.2L245.771 174.825C262.529 166.5 277.889 163.725 282.079 167.888ZM439.875 287.213C437.082 294.15 431.496 324.675 437.082 326.063C441.271 327.45 444.064 320.513 444.064 320.513C444.064 320.513 481.768 312.188 484.561 309.413C487.354 306.638 498.525 294.15 498.525 294.15C498.525 294.15 505.507 296.925 508.3 294.15C511.093 291.375 511.093 289.988 509.696 288.6C502.714 283.05 490.146 274.725 476.182 274.725C462.218 276.112 442.668 280.275 439.875 287.213ZM349.107 265.013C337.936 260.85 322.575 235.875 318.386 233.1C312.8 230.325 308.611 230.325 304.421 228.938C300.232 227.55 287.664 228.938 282.079 228.938C279.286 228.938 272.304 231.713 268.114 238.65C262.529 244.2 261.132 252.525 261.132 252.525C261.132 252.525 263.925 262.238 270.907 259.463C282.079 256.688 300.232 242.813 316.989 259.463C328.161 270.563 332.35 281.662 343.521 284.437C360.279 285.825 374.243 274.725 349.107 265.013ZM551.589 184.538C562.761 195.638 572.536 203.963 572.536 219.225C572.536 220.613 572.536 220.613 572.536 222L614.429 180.375C604.654 170.662 594.879 162.338 585.104 154.013L551.589 184.538C550.193 183.15 550.193 183.15 551.589 184.538ZM698.214 388.5C698.214 376.013 696.818 362.137 695.421 351.037L540.418 360.75L688.439 312.187C685.646 299.7 681.457 287.212 677.268 274.725L564.157 301.088L660.511 241.425C654.925 230.325 646.546 219.225 639.564 209.513L544.607 259.463C546.004 265.013 547.4 273.337 550.193 278.887C552.986 287.212 551.589 312.188 548.796 324.675C547.4 337.163 527.85 348.263 515.282 355.2C505.507 360.75 499.921 367.688 497.129 377.4C495.732 382.95 494.336 388.5 492.939 392.662C491.543 395.437 492.939 398.213 492.939 400.988C492.939 399.6 491.543 398.213 490.146 396.825C485.957 389.888 483.164 389.888 480.371 391.275C477.579 392.663 483.164 398.213 487.354 405.15C490.146 412.088 492.939 420.413 494.336 424.575C497.129 432.9 499.921 455.1 495.732 470.363C492.939 485.625 487.354 495.338 477.579 502.275C470.596 507.825 446.857 511.987 438.479 507.825C420.325 498.112 411.946 505.05 406.361 498.113C400.775 491.175 395.189 478.687 395.189 471.75C396.586 466.2 404.964 452.325 420.325 438.45C434.289 425.963 445.461 424.575 449.65 420.412C452.443 419.025 452.443 416.25 453.839 413.475C455.236 409.313 456.632 406.538 453.839 406.538C452.443 405.15 451.046 406.538 448.254 407.925C445.461 410.7 441.271 414.863 441.271 413.475C439.875 412.088 441.271 412.088 439.875 410.7C438.479 409.313 438.479 405.15 434.289 403.763C427.307 398.213 406.361 413.475 389.604 413.475C372.846 413.475 356.089 403.763 347.711 407.925C343.521 409.313 342.125 412.087 340.729 414.862C339.332 417.637 342.125 417.638 340.729 417.638C339.332 419.025 337.936 414.863 335.143 412.088C332.35 409.313 332.35 409.313 329.557 410.7C326.764 412.088 329.557 413.475 332.35 417.638C333.746 421.8 337.936 424.575 339.332 427.35C342.125 432.9 354.693 441.225 363.071 445.387C370.054 449.55 382.621 464.813 385.414 470.363C388.207 475.913 379.829 489.788 378.432 492.563C377.036 493.95 378.432 492.563 371.45 499.5C364.468 506.438 347.711 518.925 337.936 521.7C328.161 524.475 315.593 528.637 308.611 520.312C303.025 513.375 287.664 485.625 284.871 463.425C283.475 449.55 287.664 441.225 290.457 430.125C293.25 423.188 293.25 414.863 296.043 410.7C304.421 387.113 314.196 380.175 312.8 377.4C310.007 374.625 297.439 380.175 291.854 391.275C290.457 389.888 290.457 388.5 289.061 385.725C287.664 384.338 286.268 382.95 284.871 380.175C283.475 378.788 282.079 377.4 280.682 373.238C272.304 362.138 256.943 353.813 245.771 341.325C234.6 330.225 238.789 312.188 237.393 285.825C235.996 267.788 240.186 256.688 241.582 252.525L141.039 206.738C134.057 216.45 127.075 227.55 121.489 240.038L217.843 299.7L104.732 277.5C99.1464 288.6 96.3536 302.475 93.5607 314.963L230.411 359.363L86.5786 351.037C85.1821 363.525 83.7857 376.013 83.7857 388.5V389.888L237.393 398.213L86.5786 427.35C87.975 439.837 90.7679 452.325 93.5607 464.813L242.979 435.675L104.732 500.887C110.318 511.987 114.507 524.475 121.489 535.575L259.736 470.363L142.436 567.488C149.418 577.2 157.796 586.913 167.571 596.625L284.871 498.113L196.896 624.375C206.671 632.7 216.446 639.637 227.618 646.575L300.232 552.225L261.132 663.225C272.304 668.775 284.871 672.937 297.439 677.1L336.539 598.012L333.746 685.425C346.314 688.2 358.882 689.587 372.846 690.975L391 638.25L409.154 692.363C423.118 690.975 435.686 689.588 448.254 686.813L442.668 593.85L485.957 677.1C498.525 672.937 511.093 668.775 522.264 663.225L474.786 539.738L555.779 643.8C566.95 636.863 576.725 629.925 586.5 621.6L504.111 507.825L614.429 596.625C622.807 586.913 631.186 577.2 639.564 567.488L519.471 468.975L660.511 534.188C666.096 523.088 671.682 511.988 675.871 499.5L534.832 434.288L687.043 463.425C689.836 450.938 692.629 438.45 694.025 425.963L541.814 396.825L698.214 388.5ZM451.046 566.1C445.461 581.363 420.325 595.238 411.946 603.563C403.568 611.888 391 635.475 391 635.475C391 635.475 372.846 613.275 367.261 604.95C361.675 596.625 353.296 598.013 343.521 589.688C333.746 581.363 321.179 561.938 316.989 555C314.196 546.675 312.8 545.288 318.386 541.125C323.971 536.963 333.746 535.575 347.711 531.412C361.675 527.25 358.882 513.375 391 513.375C403.568 513.375 417.532 520.313 423.118 523.088C435.686 528.638 455.236 521.7 463.614 528.638C470.596 532.8 458.029 549.45 451.046 566.1ZM307.214 281.662C296.043 281.662 283.475 289.987 276.493 295.537C275.096 296.925 275.096 298.313 277.889 301.088C280.682 302.475 286.268 301.088 286.268 301.088C286.268 301.088 289.061 303.863 293.25 306.638C296.043 306.638 304.421 305.25 316.989 313.575C322.575 316.35 322.575 321.9 326.764 324.675C329.557 326.063 333.746 326.063 336.539 326.063C339.332 327.45 339.332 333 343.521 331.613C347.711 330.225 344.918 326.063 344.918 321.9C344.918 312.188 342.125 299.7 340.729 294.15C337.936 285.825 318.386 281.662 307.214 281.662ZM391 0C175.95 0 0 174.825 0 388.5C0 602.175 175.95 777 391 777C606.05 777 782 602.175 782 388.5C782 174.825 606.05 0 391 0ZM391 724.275C205.275 724.275 53.0643 574.425 53.0643 388.5C53.0643 203.962 205.275 52.725 391 52.725C576.725 52.725 728.936 203.962 728.936 388.5C728.936 574.425 576.725 724.275 391 724.275ZM229.014 188.7L194.104 155.4C184.329 163.725 174.554 172.05 166.175 181.763L208.068 219.225C209.464 209.513 219.239 197.025 229.014 188.7ZM513.886 283.05C515.282 283.05 516.679 281.662 516.679 278.887C518.075 269.175 513.886 256.688 511.093 252.525C508.3 248.363 502.714 238.65 497.129 235.875C491.543 234.487 481.768 234.488 470.596 234.488C452.443 235.875 449.65 235.875 435.686 249.75C430.1 255.3 424.514 255.3 421.721 260.85C418.929 266.4 421.721 269.175 423.118 271.95C424.514 274.725 428.704 271.95 428.704 271.95C428.704 271.95 448.254 256.688 471.993 252.525C505.507 245.588 512.489 281.662 512.489 281.662C512.489 281.662 512.489 283.05 513.886 283.05Z" fill="#ECECEC"/>
</svg>
