<svg width="585" height="581" viewBox="0 0 585 581" fill="none" xmlns="http://www.w3.org/2000/svg">
<path d="M211.018 125.538C215.196 129.688 221.464 145.25 221.464 145.25C221.464 145.25 229.821 137.988 253.848 137.988C278.92 137.988 292.5 156.663 292.5 156.663C292.5 156.663 299.813 137.988 328.018 137.988C342.643 137.988 354.134 145.25 361.446 145.25C363.536 146.287 369.804 137.987 376.071 128.65C380.25 122.425 389.652 124.5 398.009 128.65L413.679 97.525C405.321 92.3375 396.964 87.15 388.607 83L356.223 127.613L361.446 72.625C353.089 69.5125 342.643 67.4375 333.241 65.3625L311.304 126.575L305.036 62.25C300.857 63.2875 296.679 62.25 292.5 62.25C287.277 62.25 282.054 62.25 275.786 63.2875L269.518 129.687L247.58 67.4375C238.179 69.5125 228.777 71.5875 219.375 74.7L224.598 126.575L192.214 85.075C183.857 89.225 175.5 93.375 167.143 99.6L183.857 130.725C196.393 124.5 207.884 122.425 211.018 125.538ZM329.062 214.763C326.973 219.95 322.795 242.775 326.973 243.812C330.107 244.85 332.196 239.663 332.196 239.663C332.196 239.663 360.402 233.437 362.491 231.362C364.58 229.287 372.938 219.95 372.938 219.95C372.938 219.95 378.161 222.025 380.25 219.95C382.339 217.875 382.339 216.837 381.295 215.8C376.071 211.65 366.67 205.425 356.223 205.425C345.777 206.462 331.152 209.575 329.062 214.763ZM261.161 198.162C252.804 195.05 241.313 176.375 238.179 174.3C234 172.225 230.866 172.225 227.732 171.188C224.598 170.15 215.196 171.188 211.018 171.188C208.929 171.188 203.705 173.263 200.571 178.45C196.393 182.6 195.348 188.825 195.348 188.825C195.348 188.825 197.437 196.088 202.661 194.013C211.018 191.938 224.598 181.563 237.134 194.013C245.491 202.313 248.625 210.612 256.982 212.687C269.518 213.725 279.964 205.425 261.161 198.162ZM412.634 137.988C420.991 146.288 428.304 152.512 428.304 163.925C428.304 164.962 428.304 164.962 428.304 166L459.643 134.875C452.33 127.612 445.018 121.388 437.705 115.163L412.634 137.988C411.589 136.95 411.589 136.95 412.634 137.988ZM522.321 290.5C522.321 281.162 521.277 270.787 520.232 262.487L404.277 269.75L515.009 233.437C512.92 224.1 509.786 214.762 506.652 205.425L422.036 225.137L494.116 180.525C489.937 172.225 483.67 163.925 478.446 156.663L407.411 194.013C408.455 198.163 409.5 204.387 411.589 208.537C413.679 214.762 412.634 233.437 410.545 242.775C409.5 252.112 394.875 260.412 385.473 265.6C378.161 269.75 373.982 274.937 371.893 282.2C370.848 286.35 369.804 290.5 368.759 293.612C367.714 295.687 368.759 297.762 368.759 299.837C368.759 298.8 367.714 297.763 366.67 296.725C363.536 291.538 361.446 291.538 359.357 292.575C357.268 293.613 361.446 297.762 364.58 302.95C366.67 308.137 368.759 314.363 369.804 317.475C371.893 323.7 373.982 340.3 370.848 351.713C368.759 363.125 364.58 370.388 357.268 375.575C352.045 379.725 334.286 382.837 328.018 379.725C314.438 372.462 308.17 377.65 303.991 372.462C299.812 367.275 295.634 357.937 295.634 352.75C296.679 348.6 302.946 338.225 314.438 327.85C324.884 318.512 333.241 317.475 336.375 314.362C338.464 313.325 338.464 311.25 339.509 309.175C340.554 306.062 341.598 303.987 339.509 303.987C338.464 302.95 337.42 303.987 335.33 305.025C333.241 307.1 330.107 310.212 330.107 309.175C329.063 308.137 330.107 308.137 329.062 307.1C328.018 306.062 328.018 302.95 324.884 301.912C319.661 297.762 303.991 309.175 291.455 309.175C278.92 309.175 266.384 301.912 260.116 305.025C256.982 306.062 255.937 308.137 254.893 310.212C253.848 312.287 255.937 312.288 254.893 312.288C253.848 313.325 252.804 310.213 250.714 308.138C248.625 306.063 248.625 306.062 246.536 307.1C244.446 308.137 246.536 309.175 248.625 312.288C249.67 315.4 252.804 317.475 253.848 319.55C255.937 323.7 265.339 329.925 271.607 333.037C276.83 336.15 286.232 347.563 288.321 351.713C290.411 355.863 284.143 366.237 283.098 368.312C282.054 369.35 283.098 368.312 277.875 373.5C272.652 378.687 260.116 388.025 252.804 390.1C245.491 392.175 236.089 395.287 230.866 389.062C226.687 383.875 215.196 363.125 213.107 346.525C212.063 336.15 215.196 329.925 217.286 321.625C219.375 316.438 219.375 310.212 221.464 307.1C227.732 289.462 235.045 284.275 234 282.2C231.911 280.125 222.509 284.275 218.33 292.575C217.286 291.538 217.286 290.5 216.241 288.425C215.196 287.387 214.152 286.35 213.107 284.275C212.063 283.237 211.018 282.2 209.973 279.087C203.705 270.787 192.214 264.562 183.857 255.225C175.5 246.925 178.634 233.437 177.589 213.725C176.545 200.237 179.679 191.937 180.723 188.825L105.509 154.587C100.286 161.85 95.0625 170.15 90.8839 179.487L162.964 224.1L78.3482 207.5C74.1696 215.8 72.0804 226.175 69.9911 235.513L172.366 268.712L64.7679 262.487C63.7232 271.825 62.6786 281.162 62.6786 290.5V291.537L177.589 297.762L64.7679 319.55C65.8125 328.887 67.9018 338.225 69.9911 347.563L181.768 325.775L78.3482 374.537C82.5268 382.837 85.6607 392.175 90.8839 400.475L194.304 351.713L106.554 424.338C111.777 431.6 118.045 438.862 125.357 446.125L213.107 372.462L147.295 466.875C154.607 473.1 161.92 478.287 170.277 483.475L224.598 412.925L195.348 495.925C203.705 500.075 213.107 503.187 222.509 506.3L251.759 447.162L249.67 512.525C259.071 514.6 268.473 515.637 278.92 516.675L292.5 477.25L306.08 517.713C316.527 516.675 325.929 515.637 335.33 513.562L331.152 444.05L363.536 506.3C372.937 503.187 382.339 500.075 390.696 495.925L355.179 403.588L415.768 481.4C424.125 476.213 431.437 471.025 438.75 464.8L377.116 379.725L459.643 446.125C465.911 438.862 472.179 431.6 478.446 424.338L388.607 350.675L494.116 399.437C498.295 391.137 502.473 382.837 505.607 373.5L400.098 324.737L513.964 346.525C516.054 337.188 518.143 327.85 519.188 318.512L405.321 296.725L522.321 290.5ZM337.42 423.3C333.241 434.712 314.437 445.088 308.17 451.313C301.902 457.538 292.5 475.175 292.5 475.175C292.5 475.175 278.92 458.575 274.741 452.35C270.563 446.125 264.295 447.162 256.982 440.937C249.67 434.712 240.268 420.188 237.134 415C235.045 408.775 234 407.737 238.179 404.625C242.357 401.512 249.67 400.475 260.116 397.362C270.562 394.25 268.473 383.875 292.5 383.875C301.902 383.875 312.348 389.062 316.527 391.137C325.929 395.287 340.554 390.1 346.821 395.287C352.045 398.4 342.643 410.85 337.42 423.3ZM229.821 210.612C221.464 210.612 212.062 216.837 206.839 220.987C205.795 222.025 205.795 223.062 207.884 225.137C209.973 226.175 214.152 225.137 214.152 225.137C214.152 225.137 216.241 227.212 219.375 229.287C221.464 229.287 227.732 228.25 237.134 234.475C241.313 236.55 241.312 240.7 244.446 242.775C246.536 243.812 249.67 243.812 251.759 243.812C253.848 244.85 253.848 249 256.982 247.962C260.116 246.925 258.027 243.813 258.027 240.7C258.027 233.438 255.937 224.1 254.893 219.95C252.804 213.725 238.179 210.612 229.821 210.612ZM292.5 0C131.625 0 0 130.725 0 290.5C0 450.275 131.625 581 292.5 581C453.375 581 585 450.275 585 290.5C585 130.725 453.375 0 292.5 0ZM292.5 541.575C153.562 541.575 39.6964 429.525 39.6964 290.5C39.6964 152.512 153.562 39.425 292.5 39.425C431.437 39.425 545.304 152.512 545.304 290.5C545.304 429.525 431.437 541.575 292.5 541.575ZM171.321 141.1L145.205 116.2C137.893 122.425 130.58 128.65 124.312 135.913L155.652 163.925C156.696 156.662 164.009 147.325 171.321 141.1ZM384.429 211.65C385.473 211.65 386.518 210.612 386.518 208.537C387.563 201.275 384.429 191.937 382.339 188.825C380.25 185.712 376.071 178.45 371.893 176.375C367.714 175.337 360.402 175.337 352.045 175.337C338.464 176.375 336.375 176.375 325.929 186.75C321.75 190.9 317.571 190.9 315.482 195.05C313.393 199.2 315.482 201.275 316.527 203.35C317.571 205.425 320.705 203.35 320.705 203.35C320.705 203.35 335.33 191.937 353.089 188.825C378.161 183.637 383.384 210.612 383.384 210.612C383.384 210.612 383.384 211.65 384.429 211.65Z" fill="#ECECEC"/>
</svg>
