<svg width="1086" height="1080" viewBox="0 0 1086 1080" fill="none" xmlns="http://www.w3.org/2000/svg">
<path d="M391.736 233.357C399.493 241.071 411.129 270 411.129 270C411.129 270 426.643 256.5 471.246 256.5C517.789 256.5 543 291.214 543 291.214C543 291.214 556.575 256.5 608.936 256.5C636.086 256.5 657.418 270 670.993 270C674.871 271.929 686.507 256.5 698.143 239.143C705.9 227.571 723.354 231.429 738.868 239.143L767.957 181.286C752.443 171.643 736.929 162 721.414 154.286L661.296 237.214L670.993 135C655.479 129.214 636.086 125.357 618.632 121.5L577.907 235.286L566.271 115.714C558.514 117.643 550.757 115.714 543 115.714C533.304 115.714 523.607 115.714 511.971 117.643L500.336 241.071L459.611 125.357C442.157 129.214 424.704 133.071 407.25 138.857L416.946 235.286L356.829 158.143C341.314 165.857 325.8 173.571 310.286 185.143L341.314 243C364.586 231.429 385.918 227.571 391.736 233.357ZM610.875 399.214C606.996 408.857 599.239 451.286 606.996 453.214C612.814 455.143 616.693 445.5 616.693 445.5C616.693 445.5 669.054 433.929 672.932 430.071C676.811 426.214 692.325 408.857 692.325 408.857C692.325 408.857 702.021 412.714 705.9 408.857C709.779 405 709.779 403.071 707.839 401.143C698.143 393.429 680.689 381.857 661.296 381.857C641.904 383.786 614.754 389.571 610.875 399.214ZM484.821 368.357C469.307 362.571 447.975 327.857 442.157 324C434.4 320.143 428.582 320.143 422.764 318.214C416.946 316.286 399.493 318.214 391.736 318.214C387.857 318.214 378.161 322.071 372.343 331.714C364.586 339.429 362.646 351 362.646 351C362.646 351 366.525 364.5 376.221 360.643C391.736 356.786 416.946 337.5 440.218 360.643C455.732 376.071 461.55 391.5 477.064 395.357C500.336 397.286 519.729 381.857 484.821 368.357ZM766.018 256.5C781.532 271.929 795.107 283.5 795.107 304.714C795.107 306.643 795.107 306.643 795.107 308.571L853.286 250.714C839.711 237.214 826.136 225.643 812.561 214.071L766.018 256.5C764.079 254.571 764.079 254.571 766.018 256.5ZM969.643 540C969.643 522.643 967.703 503.357 965.764 487.929L750.504 501.429L956.068 433.929C952.189 416.571 946.371 399.214 940.554 381.857L783.471 418.5L917.282 335.571C909.525 320.143 897.889 304.714 888.193 291.214L756.321 360.643C758.261 368.357 760.2 379.929 764.079 387.643C767.957 399.214 766.018 433.929 762.139 451.286C760.2 468.643 733.05 484.071 715.596 493.714C702.021 501.429 694.264 511.071 690.386 524.571C688.446 532.286 686.507 540 684.568 545.786C682.629 549.643 684.568 553.5 684.568 557.357C684.568 555.429 682.629 553.5 680.689 551.571C674.871 541.929 670.993 541.929 667.114 543.857C663.236 545.786 670.993 553.5 676.811 563.143C680.689 572.786 684.568 584.357 686.507 590.143C690.386 601.714 694.264 632.571 688.446 653.786C684.568 675 676.811 688.5 663.236 698.143C653.539 705.857 620.571 711.643 608.936 705.857C583.725 692.357 572.089 702 564.332 692.357C556.575 682.714 548.818 665.357 548.818 655.714C550.757 648 562.393 628.714 583.725 609.429C603.118 592.071 618.632 590.143 624.45 584.357C628.329 582.429 628.329 578.571 630.268 574.714C632.207 568.929 634.146 565.071 630.268 565.071C628.329 563.143 626.389 565.071 622.511 567C618.632 570.857 612.814 576.643 612.814 574.714C610.875 572.786 612.814 572.786 610.875 570.857C608.936 568.929 608.936 563.143 603.118 561.214C593.421 553.5 564.332 574.714 541.061 574.714C517.789 574.714 494.518 561.214 482.882 567C477.064 568.929 475.125 572.786 473.186 576.643C471.246 580.5 475.125 580.5 473.186 580.5C471.246 582.429 469.307 576.643 465.429 572.786C461.55 568.929 461.55 568.929 457.671 570.857C453.793 572.786 457.671 574.714 461.55 580.5C463.489 586.286 469.307 590.143 471.246 594C475.125 601.714 492.579 613.286 504.214 619.071C513.911 624.857 531.364 646.071 535.243 653.786C539.121 661.5 527.486 680.786 525.546 684.643C523.607 686.571 525.546 684.643 515.85 694.286C506.154 703.929 482.882 721.286 469.307 725.143C455.732 729 438.279 734.786 428.582 723.214C420.825 713.571 399.493 675 395.614 644.143C393.675 624.857 399.493 613.286 403.371 597.857C407.25 588.214 407.25 576.643 411.129 570.857C422.764 538.071 436.339 528.429 434.4 524.571C430.521 520.714 413.068 528.429 405.311 543.857C403.371 541.929 403.371 540 401.432 536.143C399.493 534.214 397.554 532.286 395.614 528.429C393.675 526.5 391.736 524.571 389.796 518.786C378.161 503.357 356.829 491.786 341.314 474.429C325.8 459 331.618 433.929 329.679 397.286C327.739 372.214 333.557 356.786 335.496 351L195.868 287.357C186.171 300.857 176.475 316.286 168.718 333.643L302.529 416.571L145.446 385.714C137.689 401.143 133.811 420.429 129.932 437.786L319.982 499.5L120.236 487.929C118.296 505.286 116.357 522.643 116.357 540V541.929L329.679 553.5L120.236 594C122.175 611.357 126.054 628.714 129.932 646.071L337.436 605.571L145.446 696.214C153.204 711.643 159.021 729 168.718 744.429L360.707 653.786L197.807 788.786C207.504 802.286 219.139 815.786 232.714 829.286L395.614 692.357L273.439 867.857C287.014 879.429 300.589 889.071 316.104 898.714L416.946 767.571L362.646 921.857C378.161 929.571 395.614 935.357 413.068 941.143L467.368 831.214L463.489 952.714C480.943 956.571 498.396 958.5 517.789 960.429L543 887.143L568.211 962.357C587.604 960.429 605.057 958.5 622.511 954.643L614.754 825.429L674.871 941.143C692.325 935.357 709.779 929.571 725.293 921.857L659.357 750.214L771.836 894.857C787.35 885.214 800.925 875.571 814.5 864L700.082 705.857L853.286 829.286C864.921 815.786 876.557 802.286 888.193 788.786L721.414 651.857L917.282 742.5C925.039 727.071 932.796 711.643 938.614 694.286L742.746 603.643L954.129 644.143C958.007 626.786 961.886 609.429 963.825 592.071L752.443 551.571L969.643 540ZM626.389 786.857C618.632 808.071 583.725 827.357 572.089 838.929C560.454 850.5 543 883.286 543 883.286C543 883.286 517.789 852.429 510.032 840.857C502.275 829.286 490.639 831.214 477.064 819.643C463.489 808.071 446.036 781.071 440.218 771.429C436.339 759.857 434.4 757.929 442.157 752.143C449.914 746.357 463.489 744.429 482.882 738.643C502.275 732.857 498.396 713.571 543 713.571C560.454 713.571 579.846 723.214 587.604 727.071C605.057 734.786 632.207 725.143 643.843 734.786C653.539 740.571 636.086 763.714 626.389 786.857ZM426.643 391.5C411.129 391.5 393.675 403.071 383.979 410.786C382.039 412.714 382.039 414.643 385.918 418.5C389.796 420.429 397.554 418.5 397.554 418.5C397.554 418.5 401.432 422.357 407.25 426.214C411.129 426.214 422.764 424.286 440.218 435.857C447.975 439.714 447.975 447.429 453.793 451.286C457.671 453.214 463.489 453.214 467.368 453.214C471.246 455.143 471.246 462.857 477.064 460.929C482.882 459 479.004 453.214 479.004 447.429C479.004 433.929 475.125 416.571 473.186 408.857C469.307 397.286 442.157 391.5 426.643 391.5ZM543 0C244.35 0 0 243 0 540C0 837 244.35 1080 543 1080C841.65 1080 1086 837 1086 540C1086 243 841.65 0 543 0ZM543 1006.71C285.075 1006.71 73.6929 798.429 73.6929 540C73.6929 283.5 285.075 73.2857 543 73.2857C800.925 73.2857 1012.31 283.5 1012.31 540C1012.31 798.429 800.925 1006.71 543 1006.71ZM318.043 262.286L269.561 216C255.986 227.571 242.411 239.143 230.775 252.643L288.954 304.714C290.893 291.214 304.468 273.857 318.043 262.286ZM713.657 393.429C715.596 393.429 717.536 391.5 717.536 387.643C719.475 374.143 713.657 356.786 709.779 351C705.9 345.214 698.143 331.714 690.386 327.857C682.628 325.929 669.054 325.929 653.539 325.929C628.329 327.857 624.45 327.857 605.057 347.143C597.3 354.857 589.543 354.857 585.664 362.571C581.786 370.286 585.664 374.143 587.604 378C589.543 381.857 595.361 378 595.361 378C595.361 378 622.511 356.786 655.479 351C702.021 341.357 711.718 391.5 711.718 391.5C711.718 391.5 711.718 393.429 713.657 393.429Z" fill="#ECECEC"/>
</svg>
