<svg width="75" height="74" viewBox="0 0 75 74" fill="none" xmlns="http://www.w3.org/2000/svg">
<path d="M19.5149 14.4662C43.1615 17.8045 30.6427 61.7594 27.5826 74H40.3795C37.0412 63.4285 39.545 31.4361 35.3933 24.4812C32.0337 16.1353 24.5016 13.3119 20.0713 13.6316C19.8858 13.4462 19.5149 13.3534 19.5149 14.4662Z" fill="black"/>
<circle cx="24.8006" cy="8.62406" r="3.06015" fill="black"/>
<circle cx="35.3722" cy="3.06015" r="3.06015" fill="black"/>
<circle cx="15.3421" cy="28.6541" r="3.06015" fill="black"/>
<circle cx="62.6353" cy="34.7744" r="3.06015" fill="black"/>
<circle cx="14.7857" cy="13.6316" r="5.28571" fill="black"/>
<circle cx="35.3721" cy="13.6316" r="5.28571" fill="black"/>
<circle cx="53.1766" cy="15.3007" r="5.28571" fill="black"/>
<circle cx="24.2442" cy="23.6466" r="5.28571" fill="black"/>
<circle cx="15.8985" cy="38.6691" r="5.28571" fill="black"/>
<circle cx="27.5826" cy="35.8872" r="5.28571" fill="black"/>
<circle cx="25.357" cy="48.1278" r="5.28571" fill="black"/>
<circle cx="44.8309" cy="48.6842" r="5.28571" fill="black"/>
<circle cx="44.8309" cy="35.8872" r="5.28571" fill="black"/>
<circle cx="43.1617" cy="23.0902" r="5.28571" fill="black"/>
<circle cx="45.3873" cy="6.95489" r="5.28571" fill="black"/>
<circle cx="54.8458" cy="28.0977" r="5.28571" fill="black"/>
<circle cx="55.9586" cy="42.5639" r="5.28571" fill="black"/>
</svg>
