<svg width="74" height="74" viewBox="0 0 74 74" fill="none" xmlns="http://www.w3.org/2000/svg">
<path d="M37 48.9917C40.9817 48.9917 44.8165 48.7878 48.4106 48.4106C48.7878 44.8166 48.9916 40.9817 48.9916 37C48.9916 33.0182 48.7878 29.1834 48.4105 25.5894L25.5894 48.4106C29.1834 48.7878 33.0182 48.9917 37 48.9917Z" fill="url(#paint0_linear)"/>
<path d="M37.0339 48.9917C41.0156 48.9917 44.8505 48.7878 48.4445 48.4106C46.8857 63.2613 42.3662 74 37.0339 74C31.7015 74 27.1821 63.2613 25.6233 48.4106C29.2173 48.7878 33.0521 48.9917 37.0339 48.9917Z" fill="#E42125"/>
<path d="M25.5894 25.6233C10.7387 27.1821 0 31.7015 0 37.0339C0 42.3662 10.7387 46.8857 25.5894 48.4445C25.2121 44.8504 25.0083 41.0156 25.0083 37.0339C25.0083 33.0521 25.2122 29.2173 25.5894 25.6233Z" fill="#E42125"/>
<path d="M48.4445 25.5894C44.8505 25.2121 41.0156 25.0083 37.0339 25.0083C33.0521 25.0083 29.2173 25.2121 25.6233 25.5894C27.1821 10.7387 31.7015 0 37.0339 0C42.3662 0 46.8857 10.7387 48.4445 25.5894Z" fill="#E42125"/>
<path d="M48.4106 25.5894C44.8166 25.2121 40.9817 25.0083 37 25.0083C33.0182 25.0083 29.1834 25.2121 25.5894 25.5894C25.2121 29.1834 25.0083 33.0183 25.0083 37C25.0083 40.9817 25.2121 44.8166 25.5894 48.4106L48.4106 25.5894Z" fill="#AF2624"/>
<path d="M48.4106 48.4445C63.2613 46.8857 74 42.3662 74 37.0339C74 31.7015 63.2613 27.1821 48.4106 25.6233C48.7879 29.2173 48.9917 33.0521 48.9917 37.0339C48.9917 41.0156 48.7879 44.8504 48.4106 48.4445Z" fill="#505050"/>
<defs>
<linearGradient id="paint0_linear" x1="37.2905" y1="25.5894" x2="37.2905" y2="48.9917" gradientUnits="userSpaceOnUse">
<stop stop-color="#E94E52"/>
<stop offset="1" stop-color="#594142"/>
</linearGradient>
</defs>
</svg>
